<mxfile host="65bd71144e">
    <diagram id="AEH0uobeVBV-sa77biI9" name="Page-1">
        <mxGraphModel dx="915" dy="510" grid="1" gridSize="10" guides="1" tooltips="1" connect="1" arrows="1" fold="1" page="1" pageScale="1" pageWidth="1169" pageHeight="827" math="0" shadow="0">
            <root>
                <mxCell id="0"/>
                <mxCell id="1" parent="0"/>
                <mxCell id="6" value="" style="rounded=0;whiteSpace=wrap;html=1;" parent="1" vertex="1">
                    <mxGeometry x="120" y="80" width="720" height="480" as="geometry"/>
                </mxCell>
                <mxCell id="4" value="" style="rounded=0;whiteSpace=wrap;html=1;" parent="1" vertex="1">
                    <mxGeometry x="140" y="100" width="680" height="440" as="geometry"/>
                </mxCell>
                <mxCell id="2" value="" style="rounded=0;whiteSpace=wrap;html=1;" parent="1" vertex="1">
                    <mxGeometry x="200" y="160" width="240" height="320" as="geometry"/>
                </mxCell>
                <mxCell id="3" value="" style="rounded=0;whiteSpace=wrap;html=1;" parent="1" vertex="1">
                    <mxGeometry x="520" y="160" width="240" height="320" as="geometry"/>
                </mxCell>
                <mxCell id="5" value="LinuxLab01-xxxx" style="rounded=0;whiteSpace=wrap;html=1;" parent="1" vertex="1">
                    <mxGeometry x="590" y="200" width="100" height="30" as="geometry"/>
                </mxCell>
                <mxCell id="7" value="LinuxLab01-xxxx" style="rounded=0;whiteSpace=wrap;html=1;" parent="1" vertex="1">
                    <mxGeometry x="590" y="240" width="100" height="30" as="geometry"/>
                </mxCell>
                <mxCell id="9" value="Guacamole" style="rounded=0;whiteSpace=wrap;html=1;" parent="1" vertex="1">
                    <mxGeometry x="270" y="190" width="100" height="90" as="geometry"/>
                </mxCell>
                <mxCell id="14" style="edgeStyle=none;html=1;exitX=0;exitY=0.5;exitDx=0;exitDy=0;shape=link;" edge="1" parent="1">
                    <mxGeometry relative="1" as="geometry">
                        <mxPoint x="100" y="345" as="targetPoint"/>
                        <mxPoint x="270" y="344.9" as="sourcePoint"/>
                    </mxGeometry>
                </mxCell>
                <mxCell id="10" value="Publique" style="whiteSpace=wrap;html=1;" vertex="1" parent="1">
                    <mxGeometry x="210" y="225" width="70" height="20" as="geometry"/>
                </mxCell>
                <mxCell id="12" style="edgeStyle=orthogonalEdgeStyle;html=1;exitX=1.007;exitY=0.388;exitDx=0;exitDy=0;entryX=0;entryY=0.5;entryDx=0;entryDy=0;fillColor=#ffe6cc;strokeColor=#d79b00;exitPerimeter=0;" edge="1" parent="1" source="11" target="5">
                    <mxGeometry relative="1" as="geometry"/>
                </mxCell>
                <mxCell id="13" style="edgeStyle=orthogonalEdgeStyle;html=1;exitX=1.003;exitY=0.645;exitDx=0;exitDy=0;entryX=0;entryY=0.5;entryDx=0;entryDy=0;fillColor=#ffe6cc;strokeColor=#d79b00;exitPerimeter=0;" edge="1" parent="1" source="11" target="7">
                    <mxGeometry relative="1" as="geometry"/>
                </mxCell>
                <mxCell id="11" value="PrivÃ©" style="whiteSpace=wrap;html=1;" vertex="1" parent="1">
                    <mxGeometry x="360" y="225" width="70" height="20" as="geometry"/>
                </mxCell>
                <mxCell id="16" style="edgeStyle=none;html=1;exitX=0.5;exitY=0;exitDx=0;exitDy=0;entryX=0.5;entryY=1;entryDx=0;entryDy=0;fillColor=#ffe6cc;strokeColor=#d79b00;" edge="1" parent="1" source="15" target="9">
                    <mxGeometry relative="1" as="geometry"/>
                </mxCell>
                <mxCell id="15" value="Nginx" style="rounded=0;whiteSpace=wrap;html=1;" vertex="1" parent="1">
                    <mxGeometry x="270" y="320" width="100" height="50" as="geometry"/>
                </mxCell>
                <mxCell id="53" value="" style="group" vertex="1" connectable="0" parent="1">
                    <mxGeometry x="1230" y="80" width="330" height="200" as="geometry"/>
                </mxCell>
                <mxCell id="17" value="" style="rounded=0;whiteSpace=wrap;html=1;" vertex="1" parent="53">
                    <mxGeometry width="330" height="150" as="geometry"/>
                </mxCell>
                <mxCell id="20" value="" style="group" vertex="1" connectable="0" parent="53">
                    <mxGeometry x="9" y="7" width="111" height="193" as="geometry"/>
                </mxCell>
                <mxCell id="18" value="" style="rounded=0;whiteSpace=wrap;html=1;" vertex="1" parent="20">
                    <mxGeometry x="11" y="23" width="100" height="107" as="geometry"/>
                </mxCell>
                <mxCell id="19" value="users" style="text;html=1;align=center;verticalAlign=middle;resizable=0;points=[];autosize=1;strokeColor=none;fillColor=none;" vertex="1" parent="20">
                    <mxGeometry width="50" height="30" as="geometry"/>
                </mxCell>
                <mxCell id="21" value="" style="group" vertex="1" connectable="0" parent="53">
                    <mxGeometry x="200" y="7" width="111" height="193" as="geometry"/>
                </mxCell>
                <mxCell id="22" value="" style="rounded=0;whiteSpace=wrap;html=1;" vertex="1" parent="21">
                    <mxGeometry x="11" y="23" width="100" height="107" as="geometry"/>
                </mxCell>
                <mxCell id="23" value="sessions" style="text;html=1;align=center;verticalAlign=middle;resizable=0;points=[];autosize=1;strokeColor=none;fillColor=none;" vertex="1" parent="21">
                    <mxGeometry x="-2" width="70" height="30" as="geometry"/>
                </mxCell>
                <mxCell id="34" value="" style="group" vertex="1" connectable="0" parent="53">
                    <mxGeometry x="46" y="43" width="240" height="20" as="geometry"/>
                </mxCell>
                <mxCell id="31" value="demo01" style="whiteSpace=wrap;html=1;" vertex="1" parent="34">
                    <mxGeometry width="50" height="20" as="geometry"/>
                </mxCell>
                <mxCell id="32" style="edgeStyle=none;html=1;exitX=1;exitY=0.5;exitDx=0;exitDy=0;entryX=0;entryY=0.5;entryDx=0;entryDy=0;" edge="1" parent="34" source="31">
                    <mxGeometry relative="1" as="geometry">
                        <mxPoint x="191" y="10" as="targetPoint"/>
                    </mxGeometry>
                </mxCell>
                <mxCell id="33" value="lab01" style="whiteSpace=wrap;html=1;" vertex="1" parent="34">
                    <mxGeometry x="190" width="50" height="20" as="geometry"/>
                </mxCell>
                <mxCell id="44" value="" style="group" vertex="1" connectable="0" parent="53">
                    <mxGeometry x="46" y="68" width="240" height="20" as="geometry"/>
                </mxCell>
                <mxCell id="45" value="demo02" style="whiteSpace=wrap;html=1;" vertex="1" parent="44">
                    <mxGeometry width="50" height="20" as="geometry"/>
                </mxCell>
                <mxCell id="46" style="edgeStyle=none;html=1;exitX=1;exitY=0.5;exitDx=0;exitDy=0;entryX=0;entryY=0.5;entryDx=0;entryDy=0;" edge="1" parent="44" source="45">
                    <mxGeometry relative="1" as="geometry">
                        <mxPoint x="191" y="10" as="targetPoint"/>
                    </mxGeometry>
                </mxCell>
                <mxCell id="47" value="lab02" style="whiteSpace=wrap;html=1;" vertex="1" parent="44">
                    <mxGeometry x="190" width="50" height="20" as="geometry"/>
                </mxCell>
                <mxCell id="48" value="" style="group" vertex="1" connectable="0" parent="53">
                    <mxGeometry x="46" y="94" width="240" height="20" as="geometry"/>
                </mxCell>
                <mxCell id="49" value="demo03" style="whiteSpace=wrap;html=1;" vertex="1" parent="48">
                    <mxGeometry width="50" height="20" as="geometry"/>
                </mxCell>
                <mxCell id="50" style="edgeStyle=none;html=1;exitX=1;exitY=0.5;exitDx=0;exitDy=0;entryX=0;entryY=0.5;entryDx=0;entryDy=0;" edge="1" parent="48" source="49">
                    <mxGeometry relative="1" as="geometry">
                        <mxPoint x="191" y="10" as="targetPoint"/>
                    </mxGeometry>
                </mxCell>
                <mxCell id="51" value="lab03" style="whiteSpace=wrap;html=1;" vertex="1" parent="48">
                    <mxGeometry x="190" width="50" height="20" as="geometry"/>
                </mxCell>
            </root>
        </mxGraphModel>
    </diagram>
    <diagram id="EP1Tm-bv4HpGFcNMxGMF" name="Page-2">
        <mxGraphModel dx="1009" dy="765" grid="1" gridSize="10" guides="1" tooltips="1" connect="1" arrows="1" fold="1" page="1" pageScale="1" pageWidth="1169" pageHeight="827" math="0" shadow="0">
            <root>
                <mxCell id="0"/>
                <mxCell id="1" parent="0"/>
                <mxCell id="uGOgZB36AWkVCw9IUhEi-6" style="edgeStyle=none;html=1;exitX=1;exitY=0.5;exitDx=0;exitDy=0;entryX=0;entryY=0.5;entryDx=0;entryDy=0;" edge="1" parent="1" source="uGOgZB36AWkVCw9IUhEi-2" target="uGOgZB36AWkVCw9IUhEi-3">
                    <mxGeometry relative="1" as="geometry"/>
                </mxCell>
                <mxCell id="uGOgZB36AWkVCw9IUhEi-7" style="edgeStyle=none;html=1;exitX=1;exitY=0.5;exitDx=0;exitDy=0;entryX=0;entryY=0.5;entryDx=0;entryDy=0;" edge="1" parent="1" source="uGOgZB36AWkVCw9IUhEi-2" target="uGOgZB36AWkVCw9IUhEi-5">
                    <mxGeometry relative="1" as="geometry"/>
                </mxCell>
                <mxCell id="uGOgZB36AWkVCw9IUhEi-2" value="Guacamole" style="rounded=0;whiteSpace=wrap;html=1;" vertex="1" parent="1">
                    <mxGeometry x="320" y="240" width="120" height="80" as="geometry"/>
                </mxCell>
                <mxCell id="uGOgZB36AWkVCw9IUhEi-3" value="VM1" style="rounded=0;whiteSpace=wrap;html=1;" vertex="1" parent="1">
                    <mxGeometry x="560" y="220" width="120" height="40" as="geometry"/>
                </mxCell>
                <mxCell id="uGOgZB36AWkVCw9IUhEi-5" value="VM2" style="rounded=0;whiteSpace=wrap;html=1;" vertex="1" parent="1">
                    <mxGeometry x="560" y="300" width="120" height="40" as="geometry"/>
                </mxCell>
                <mxCell id="uGOgZB36AWkVCw9IUhEi-9" style="edgeStyle=none;html=1;exitX=1;exitY=0.5;exitDx=0;exitDy=0;entryX=0;entryY=0.5;entryDx=0;entryDy=0;" edge="1" parent="1" source="uGOgZB36AWkVCw9IUhEi-8" target="uGOgZB36AWkVCw9IUhEi-2">
                    <mxGeometry relative="1" as="geometry"/>
                </mxCell>
                <mxCell id="uGOgZB36AWkVCw9IUhEi-8" value="Webserver" style="rounded=0;whiteSpace=wrap;html=1;" vertex="1" parent="1">
                    <mxGeometry x="120" y="240" width="120" height="80" as="geometry"/>
                </mxCell>
            </root>
        </mxGraphModel>
    </diagram>
</mxfile>